<svg width="300" height="310" viewBox="0 0 300 310" fill="none" xmlns="http://www.w3.org/2000/svg">
<g clip-path="url(#clip0)">
<path d="M278.206 0L275.415 2.68768L245.056 31.943L193.589 81.5392L196.014 293.836L0.255615 245.641V105.129L74.102 20.0011L278.206 0Z" fill="#373E46"/>
<path opacity="0.1" d="M278.206 0L275.415 2.68768L245.056 31.943L193.589 81.5392L196.014 293.836L0.255615 245.641V105.129L74.102 20.0011L278.206 0Z" fill="black"/>
<path d="M299.23 134.873L293.591 278.973L91.5376 309.744L0.255615 245.641V107.179L193.589 81.5392L299.23 134.873Z" fill="#373E46"/>
<path d="M298.974 134.873L293.332 278.973L91.282 309.744L0 245.641V107.179L193.334 81.5392L298.974 134.873Z" fill="#373E46"/>
<path opacity="0.1" d="M91.5376 161.024V309.744L0.255615 245.641V107.271L91.5376 161.024Z" fill="black"/>
<path opacity="0.1" d="M275.415 2.68768L245.057 31.943L98.719 48.2065L72.5637 22.5628L275.415 2.68768Z" fill="black"/>
<path opacity="0.1" d="M193.59 81.5392L195.64 295.386L293.591 278.973L299.23 134.873L193.59 81.5392Z" fill="black"/>
<path d="M299.23 134.873L259.743 131.28L164.892 84.3185L193.59 81.5392L299.23 134.873Z" fill="#373E46"/>
<path d="M74.1023 20.0011L100.258 45.641L275.64 26.1553L278.206 0L74.1023 20.0011Z" fill="#373E46"/>
<path d="M132.819 99.2305C132.825 100.446 132.697 101.658 132.437 102.846C131.959 104.995 131.049 107.025 129.765 108.813C129.331 109.412 128.859 109.982 128.352 110.52C125.704 113.326 122.146 115.102 118.312 115.532C117.686 115.605 117.056 115.64 116.426 115.639C114.37 115.638 112.332 115.25 110.42 114.494C109.873 114.28 109.338 114.037 108.817 113.765C105.106 111.818 102.278 108.529 100.91 104.568C100.711 104.001 100.547 103.422 100.418 102.834C100.315 102.384 100.235 101.926 100.17 101.464C100.069 100.72 100.018 99.9699 100.017 99.2191C100.015 97.5941 100.255 95.9778 100.731 94.424C100.823 94.1109 100.93 93.8017 101.044 93.4925C102.095 90.6743 103.901 88.1992 106.263 86.3373C108.626 84.4755 111.454 83.2985 114.44 82.9349C117.426 82.5712 120.454 83.0349 123.195 84.2754C125.935 85.5158 128.282 87.4852 129.979 89.9687V89.9687C131.841 92.6973 132.831 95.9269 132.819 99.2305V99.2305Z" fill="#EEEFF0"/>
<path d="M131.54 111.024C143.577 111.024 153.336 97.4777 153.336 80.768C153.336 64.0583 143.577 50.5125 131.54 50.5125C119.503 50.5125 109.745 64.0583 109.745 80.768C109.745 97.4777 119.503 111.024 131.54 111.024Z" fill="#E20E0E"/>
<path opacity="0.1" d="M131.54 111.024C143.577 111.024 153.336 97.4777 153.336 80.768C153.336 64.0583 143.577 50.5125 131.54 50.5125C119.503 50.5125 109.745 64.0583 109.745 80.768C109.745 97.4777 119.503 111.024 131.54 111.024Z" fill="black"/>
<path d="M168.706 7.94852C159.971 7.94857 151.42 10.455 144.067 15.1702C136.715 19.8855 130.87 26.6115 127.226 34.5498C123.582 42.4881 122.293 51.3052 123.511 59.9545C124.729 68.6037 128.403 76.7218 134.098 83.345C134.98 84.3757 135.911 85.3645 136.885 86.2961C142.067 91.3549 148.383 95.1035 155.305 97.23C156.451 97.5851 157.634 97.8982 158.822 98.1539C164.893 99.493 171.173 99.584 177.28 98.4212C178.494 98.1959 179.701 97.9172 180.88 97.5851C188.057 95.602 194.637 91.8867 200.042 86.7656C201.098 85.7705 202.104 84.7257 203.061 83.6313C208.833 77.0321 212.582 68.9101 213.86 60.2365C215.138 51.5629 213.89 42.7048 210.266 34.7216C206.642 26.7384 200.795 19.968 193.425 15.2201C186.055 10.4722 177.473 7.94767 168.706 7.94852ZM168.706 16.6682C168.097 16.6682 167.502 16.4878 166.996 16.1496C166.49 15.8115 166.096 15.3309 165.863 14.7687C165.63 14.2064 165.569 13.5877 165.688 12.9908C165.806 12.3939 166.1 11.8456 166.53 11.4153C166.96 10.985 167.508 10.6919 168.105 10.5732C168.702 10.4544 169.321 10.5154 169.883 10.7483C170.446 10.9812 170.926 11.3756 171.264 11.8816C171.602 12.3876 171.783 12.9825 171.783 13.5911C171.783 14.4072 171.459 15.1899 170.882 15.767C170.304 16.344 169.522 16.6682 168.706 16.6682Z" fill="#E20E0E"/>
<path d="M209.742 111.027C218.24 111.027 225.128 100.466 225.128 87.4376C225.128 74.4093 218.24 63.8478 209.742 63.8478C201.245 63.8478 194.357 74.4093 194.357 87.4376C194.357 100.466 201.245 111.027 209.742 111.027Z" fill="#975656"/>
<path opacity="0.1" d="M209.742 100.017C214.274 100.017 217.947 94.385 217.947 87.4376C217.947 80.4901 214.274 74.8581 209.742 74.8581C205.211 74.8581 201.538 80.4901 201.538 87.4376C201.538 94.385 205.211 100.017 209.742 100.017Z" fill="black"/>
<path d="M168.717 225.384C198.172 225.384 222.051 198.981 222.051 166.411C222.051 133.842 198.172 107.439 168.717 107.439C139.262 107.439 115.383 133.842 115.383 166.411C115.383 198.981 139.262 225.384 168.717 225.384Z" fill="#975656"/>
<path opacity="0.1" d="M168.717 225.384C198.172 225.384 222.051 198.981 222.051 166.411C222.051 133.842 198.172 107.439 168.717 107.439C139.262 107.439 115.383 133.842 115.383 166.411C115.383 198.981 139.262 225.384 168.717 225.384Z" fill="black"/>
<path d="M127.692 111.027C136.189 111.027 143.077 100.466 143.077 87.4376C143.077 74.4093 136.189 63.8478 127.692 63.8478C119.194 63.8478 112.306 74.4093 112.306 87.4376C112.306 100.466 119.194 111.027 127.692 111.027Z" fill="#975656"/>
<path opacity="0.1" d="M127.692 100.017C132.223 100.017 135.896 94.385 135.896 87.4376C135.896 80.4901 132.223 74.8581 127.692 74.8581C123.161 74.8581 119.488 80.4901 119.488 87.4376C119.488 94.385 123.161 100.017 127.692 100.017Z" fill="black"/>
<path opacity="0.1" d="M133.819 83.219L134.354 25.8957L131.036 80.2679L133.819 83.219Z" fill="black"/>
<path opacity="0.1" d="M156.405 25.8957L155.76 95.0616C154.572 94.8058 153.397 94.4927 152.244 94.1377L156.405 25.8957Z" fill="black"/>
<path opacity="0.1" d="M178.456 25.8957L177.819 94.508C176.639 94.8401 175.433 95.1188 174.219 95.3441L178.456 25.8957Z" fill="black"/>
<path opacity="0.1" d="M200 80.5542L200.507 25.8957L196.98 83.6886L200 80.5542Z" fill="black"/>
<path opacity="0.1" d="M209.777 52.5626H127.657C125.127 52.5626 123.076 54.6137 123.076 57.1438V77.7252C123.076 80.2554 125.127 82.3065 127.657 82.3065H209.777C212.307 82.3065 214.358 80.2554 214.358 77.7252V57.1438C214.358 54.6137 212.307 52.5626 209.777 52.5626Z" fill="black"/>
<path d="M210.77 95.6419C210.757 106.282 206.707 116.521 199.436 124.29C192.166 132.059 182.218 136.778 171.602 137.494C160.986 138.21 150.493 134.87 142.245 128.149C133.997 121.427 128.608 111.825 127.166 101.283C125.725 90.7406 128.339 80.0444 134.481 71.3555C140.622 62.6666 149.833 56.6327 160.251 54.4732C170.67 52.3138 181.52 54.1896 190.609 59.7218C199.698 65.254 206.348 74.03 209.216 84.2765C210.25 87.9762 210.773 91.8002 210.77 95.6419Z" fill="#975656"/>
<path opacity="0.1" d="M209.216 84.2765C208.882 84.3316 208.545 84.3597 208.208 84.3605H129.234C128.895 84.3597 128.557 84.3316 128.222 84.2765C130.276 76.9775 134.263 70.3686 139.762 65.148C145.26 59.9273 152.067 56.2887 159.463 54.6165H177.975C185.371 56.2887 192.178 59.9273 197.676 65.148C203.175 70.3686 207.162 76.9775 209.216 84.2765V84.2765Z" fill="black"/>
<path d="M208.204 53.5895H129.23C125.831 53.5895 123.076 56.3448 123.076 59.7437V77.1793C123.076 80.5782 125.831 83.3335 129.23 83.3335H208.204C211.603 83.3335 214.358 80.5782 214.358 77.1793V59.7437C214.358 56.3448 211.603 53.5895 208.204 53.5895Z" fill="#EEEFF0"/>
<path opacity="0.1" d="M133.162 80.2564L134.353 60.7707L134.174 80.2564H133.162Z" fill="black"/>
<path opacity="0.1" d="M156.226 80.2564L156.405 60.7707L155.214 80.2564H156.226Z" fill="black"/>
<path opacity="0.1" d="M178.456 60.7707L178.273 80.2564H177.265L178.456 60.7707Z" fill="black"/>
<path opacity="0.1" d="M199.316 80.2564L200.508 60.7707L200.328 80.2564H199.316Z" fill="black"/>
<path opacity="0.1" d="M152.82 96.1573C155.936 96.1573 158.463 93.631 158.463 90.5147C158.463 87.3984 155.936 84.8721 152.82 84.8721C149.704 84.8721 147.177 87.3984 147.177 90.5147C147.177 93.631 149.704 96.1573 152.82 96.1573Z" fill="black"/>
<path d="M152.82 95.6419C155.936 95.6419 158.463 93.1156 158.463 89.9993C158.463 86.8829 155.936 84.3567 152.82 84.3567C149.704 84.3567 147.177 86.8829 147.177 89.9993C147.177 93.1156 149.704 95.6419 152.82 95.6419Z" fill="#EEEFF0"/>
<path d="M152.82 92.5648C154.237 92.5648 155.385 91.4162 155.385 89.9993C155.385 88.5824 154.237 87.4337 152.82 87.4337C151.403 87.4337 150.254 88.5824 150.254 89.9993C150.254 91.4162 151.403 92.5648 152.82 92.5648Z" fill="#373E46"/>
<path d="M153.332 89.4877C153.614 89.4877 153.843 89.2586 153.843 88.9761C153.843 88.6936 153.614 88.4645 153.332 88.4645C153.049 88.4645 152.82 88.6936 152.82 88.9761C152.82 89.2586 153.049 89.4877 153.332 89.4877Z" fill="white"/>
<path opacity="0.1" d="M186.668 96.1573C189.785 96.1573 192.311 93.631 192.311 90.5147C192.311 87.3984 189.785 84.8721 186.668 84.8721C183.552 84.8721 181.026 87.3984 181.026 90.5147C181.026 93.631 183.552 96.1573 186.668 96.1573Z" fill="black"/>
<path d="M186.668 95.6419C189.785 95.6419 192.311 93.1156 192.311 89.9993C192.311 86.8829 189.785 84.3567 186.668 84.3567C183.552 84.3567 181.026 86.8829 181.026 89.9993C181.026 93.1156 183.552 95.6419 186.668 95.6419Z" fill="#EEEFF0"/>
<path d="M186.668 92.5648C188.085 92.5648 189.234 91.4162 189.234 89.9993C189.234 88.5824 188.085 87.4337 186.668 87.4337C185.251 87.4337 184.103 88.5824 184.103 89.9993C184.103 91.4162 185.251 92.5648 186.668 92.5648Z" fill="#373E46"/>
<path d="M185.641 89.4877C185.924 89.4877 186.153 89.2586 186.153 88.9761C186.153 88.6936 185.924 88.4645 185.641 88.4645C185.359 88.4645 185.13 88.6936 185.13 88.9761C185.13 89.2586 185.359 89.4877 185.641 89.4877Z" fill="white"/>
<path opacity="0.1" d="M169.744 124.359C179.091 124.359 186.668 116.782 186.668 107.435C186.668 98.088 179.091 90.5109 169.744 90.5109C160.397 90.5109 152.82 98.088 152.82 107.435C152.82 116.782 160.397 124.359 169.744 124.359Z" fill="black"/>
<path d="M169.744 123.336C179.091 123.336 186.668 115.759 186.668 106.412C186.668 97.0648 179.091 89.4877 169.744 89.4877C160.397 89.4877 152.82 97.0648 152.82 106.412C152.82 115.759 160.397 123.336 169.744 123.336Z" fill="#E20E0E"/>
<path d="M298.974 135.64L296.642 185.744L295.699 205.99L292.308 278.717L90.2549 310V160.769L298.974 135.64Z" fill="#373E46"/>
<path d="M0.255615 107.179L39.1927 102.014L121.282 146.154L91.5376 161.024L0.255615 107.179Z" fill="#373E46"/>
<path opacity="0.05" d="M0.255615 107.179L39.1927 102.014L121.282 146.154L91.5376 161.024L0.255615 107.179Z" fill="black"/>
<path opacity="0.1" d="M92.2822 120.102L87.113 117.334C86.9013 117.223 86.66 117.181 86.4231 117.214C86.1862 117.247 85.9656 117.353 85.7921 117.517L81.5659 121.576C81.3913 121.737 81.171 121.84 80.9355 121.87C80.6999 121.9 80.4608 121.857 80.2511 121.745C80.0414 121.634 79.8716 121.46 79.7652 121.247C79.6587 121.035 79.6209 120.795 79.657 120.56L80.6916 114.792C80.7319 114.556 80.6977 114.314 80.5936 114.099C80.4896 113.884 80.3209 113.707 80.1113 113.593L74.9421 110.825C74.7374 110.707 74.574 110.529 74.4744 110.315C74.3748 110.101 74.3437 109.862 74.3855 109.629C74.4273 109.397 74.5399 109.183 74.7079 109.017C74.8758 108.851 75.091 108.741 75.3239 108.702L81.1306 107.904C81.3674 107.87 81.5875 107.763 81.76 107.597C81.9326 107.431 82.0489 107.216 82.0927 106.981L83.1235 101.212C83.1717 100.98 83.2903 100.77 83.4632 100.608C83.636 100.447 83.8545 100.343 84.0887 100.311C84.323 100.279 84.5614 100.32 84.7714 100.428C84.9814 100.537 85.1525 100.708 85.2614 100.918L87.8155 106.194C87.9217 106.408 88.0922 106.583 88.303 106.696C88.5139 106.808 88.7545 106.851 88.9913 106.82L94.7943 106.022C95.029 105.997 95.2658 106.044 95.4724 106.158C95.679 106.273 95.8453 106.448 95.9485 106.66C96.0517 106.872 96.0868 107.111 96.049 107.344C96.0112 107.577 95.9023 107.793 95.7373 107.962L91.5072 112.02C91.3361 112.187 91.2217 112.404 91.1799 112.639C91.1381 112.875 91.1712 113.117 91.2743 113.333L93.8284 118.609C93.9227 118.824 93.9491 119.062 93.9039 119.292C93.8587 119.522 93.7441 119.732 93.5756 119.895C93.4071 120.057 93.1928 120.164 92.9615 120.202C92.7302 120.239 92.4932 120.204 92.2822 120.102Z" fill="black"/>
<path d="M91.5149 119.033L86.9336 116.582C86.7463 116.482 86.5321 116.443 86.3216 116.472C86.1111 116.501 85.9151 116.596 85.7616 116.742L82.0126 120.343C81.8596 120.489 81.6642 120.584 81.4542 120.613C81.2442 120.642 81.0305 120.603 80.8436 120.503C80.6567 120.403 80.5063 120.247 80.4138 120.056C80.3214 119.865 80.2917 119.65 80.3289 119.442L81.2452 114.326C81.2831 114.117 81.2537 113.901 81.1611 113.709C81.0684 113.518 80.9174 113.361 80.7298 113.261L76.1485 110.81C75.9607 110.71 75.8093 110.554 75.7162 110.362C75.6231 110.171 75.593 109.955 75.6304 109.746C75.6677 109.537 75.7706 109.345 75.9241 109.198C76.0775 109.051 76.2738 108.956 76.4845 108.928L81.6346 108.217C81.8446 108.189 82.04 108.094 82.1929 107.947C82.3459 107.8 82.4484 107.609 82.4859 107.4L83.4022 102.281C83.4348 102.067 83.536 101.868 83.6905 101.716C83.845 101.564 84.0447 101.466 84.2595 101.437C84.4744 101.408 84.6929 101.449 84.8825 101.554C85.072 101.66 85.2224 101.823 85.3111 102.021L87.5788 106.698C87.6708 106.89 87.8214 107.047 88.0088 107.147C88.1962 107.247 88.4106 107.285 88.621 107.255L93.7673 106.549C93.9775 106.52 94.1917 106.557 94.3791 106.657C94.5665 106.757 94.7174 106.913 94.8103 107.104C94.9032 107.295 94.9332 107.51 94.896 107.719C94.8589 107.928 94.7564 108.12 94.6034 108.267L90.8239 111.86C90.6732 112.004 90.5719 112.193 90.5342 112.398C90.4965 112.604 90.5244 112.816 90.6139 113.005L92.8816 117.685C92.9808 117.876 93.0163 118.093 92.9829 118.305C92.9495 118.517 92.8489 118.713 92.696 118.864C92.5431 119.015 92.3459 119.113 92.1333 119.143C91.9207 119.174 91.704 119.135 91.5149 119.033V119.033Z" fill="#EEEFF0"/>
<path opacity="0.1" d="M282.52 267.272L279.328 265.562C279.198 265.491 279.049 265.464 278.902 265.484C278.755 265.503 278.618 265.57 278.511 265.672L275.896 268.184C275.79 268.287 275.653 268.353 275.507 268.374C275.36 268.394 275.211 268.367 275.08 268.297C274.95 268.227 274.845 268.117 274.781 267.984C274.717 267.85 274.697 267.7 274.724 267.554L275.362 263.989C275.388 263.843 275.367 263.693 275.303 263.56C275.238 263.427 275.133 263.318 275.003 263.248L271.807 261.538C271.677 261.467 271.573 261.358 271.509 261.224C271.445 261.091 271.424 260.941 271.451 260.795C271.477 260.65 271.548 260.516 271.655 260.414C271.761 260.311 271.898 260.245 272.044 260.224L275.633 259.732C275.78 259.711 275.916 259.645 276.023 259.542C276.13 259.439 276.202 259.305 276.228 259.159L276.866 255.593C276.893 255.448 276.964 255.315 277.071 255.213C277.178 255.111 277.314 255.045 277.46 255.025C277.606 255.005 277.755 255.031 277.886 255.1C278.016 255.169 278.122 255.278 278.187 255.41L279.764 258.674C279.83 258.806 279.936 258.914 280.067 258.982C280.198 259.051 280.347 259.077 280.493 259.056L284.081 258.564C284.228 258.542 284.378 258.569 284.509 258.638C284.64 258.708 284.746 258.817 284.81 258.951C284.875 259.084 284.895 259.235 284.869 259.381C284.842 259.527 284.769 259.66 284.662 259.762L282.05 262.278C281.943 262.381 281.871 262.515 281.845 262.661C281.818 262.807 281.838 262.958 281.901 263.092L283.482 266.352C283.544 266.485 283.563 266.634 283.536 266.779C283.509 266.923 283.438 267.056 283.331 267.157C283.225 267.259 283.09 267.325 282.944 267.345C282.798 267.366 282.65 267.34 282.52 267.272V267.272Z" fill="black"/>
<path d="M282.051 266.611L279.214 265.084C279.099 265.022 278.967 264.999 278.837 265.017C278.707 265.034 278.587 265.093 278.492 265.184L276.175 267.409C276.08 267.5 275.959 267.558 275.83 267.575C275.7 267.593 275.568 267.569 275.452 267.508C275.337 267.446 275.244 267.349 275.187 267.231C275.129 267.114 275.11 266.981 275.133 266.852L275.698 263.687C275.721 263.558 275.703 263.425 275.646 263.307C275.59 263.189 275.497 263.092 275.381 263.03L272.548 261.515C272.44 261.45 272.354 261.353 272.302 261.238C272.25 261.122 272.234 260.994 272.257 260.87C272.28 260.745 272.34 260.631 272.43 260.541C272.519 260.452 272.634 260.392 272.758 260.369L275.938 259.93C276.068 259.914 276.19 259.856 276.285 259.765C276.379 259.674 276.443 259.556 276.465 259.427L277.034 256.262C277.058 256.133 277.121 256.014 277.216 255.923C277.311 255.833 277.432 255.774 277.562 255.756C277.692 255.739 277.824 255.762 277.94 255.824C278.056 255.886 278.149 255.983 278.206 256.101L279.603 258.995C279.661 259.113 279.754 259.21 279.87 259.272C279.986 259.333 280.119 259.357 280.249 259.339L283.433 258.9C283.563 258.882 283.695 258.906 283.811 258.968C283.927 259.03 284.02 259.127 284.077 259.245C284.134 259.363 284.152 259.497 284.129 259.626C284.106 259.755 284.043 259.874 283.948 259.965L281.631 262.191C281.536 262.281 281.472 262.399 281.449 262.528C281.425 262.657 281.444 262.79 281.501 262.908L282.902 265.802C282.958 265.92 282.975 266.052 282.951 266.18C282.927 266.308 282.863 266.425 282.769 266.515C282.675 266.604 282.554 266.662 282.425 266.679C282.296 266.697 282.165 266.673 282.051 266.611V266.611Z" fill="#E20E0E"/>
<path opacity="0.1" d="M115.853 190.86L112.661 189.15C112.53 189.081 112.381 189.055 112.234 189.075C112.088 189.096 111.951 189.162 111.844 189.264L109.229 191.772C109.123 191.875 108.986 191.941 108.84 191.962C108.693 191.982 108.544 191.955 108.413 191.885C108.283 191.815 108.178 191.705 108.114 191.572C108.05 191.438 108.03 191.288 108.057 191.143L108.695 187.577C108.72 187.431 108.7 187.281 108.635 187.148C108.571 187.015 108.466 186.906 108.336 186.836L105.14 185.126C105.01 185.056 104.904 184.947 104.84 184.814C104.775 184.681 104.755 184.53 104.781 184.385C104.807 184.239 104.879 184.105 104.986 184.003C105.093 183.901 105.23 183.836 105.377 183.816L108.966 183.32C109.112 183.3 109.249 183.234 109.356 183.132C109.463 183.03 109.535 182.897 109.561 182.751L110.199 179.182C110.226 179.037 110.298 178.904 110.405 178.802C110.512 178.701 110.648 178.635 110.795 178.616C110.941 178.596 111.089 178.622 111.22 178.692C111.35 178.761 111.455 178.87 111.52 179.002L113.1 182.262C113.165 182.395 113.27 182.503 113.401 182.572C113.531 182.64 113.68 182.666 113.826 182.644L117.414 182.148C117.561 182.128 117.71 182.155 117.841 182.226C117.971 182.296 118.076 182.405 118.14 182.539C118.205 182.672 118.225 182.823 118.199 182.968C118.173 183.114 118.101 183.248 117.995 183.351L115.383 185.859C115.275 185.964 115.204 186.102 115.181 186.252C115.159 186.401 115.185 186.554 115.257 186.687L116.834 189.948C116.898 190.082 116.918 190.234 116.89 190.381C116.861 190.528 116.787 190.662 116.678 190.763C116.569 190.865 116.43 190.929 116.281 190.947C116.133 190.964 115.983 190.934 115.853 190.86V190.86Z" fill="black"/>
<path d="M115.383 190.203L112.551 188.676C112.434 188.615 112.302 188.592 112.172 188.61C112.042 188.627 111.921 188.685 111.825 188.775L109.508 191.001C109.413 191.092 109.292 191.15 109.162 191.167C109.033 191.185 108.901 191.161 108.785 191.099C108.67 191.038 108.577 190.941 108.519 190.823C108.462 190.706 108.443 190.573 108.466 190.444L109.031 187.283C109.055 187.154 109.037 187.021 108.98 186.902C108.923 186.784 108.83 186.687 108.714 186.626L105.881 185.099C105.771 185.035 105.683 184.939 105.63 184.823C105.576 184.707 105.56 184.578 105.583 184.452C105.606 184.327 105.667 184.212 105.758 184.123C105.849 184.033 105.965 183.974 106.091 183.954L109.271 183.515C109.402 183.497 109.523 183.438 109.618 183.347C109.712 183.256 109.776 183.137 109.798 183.007L110.367 179.846C110.39 179.717 110.454 179.598 110.549 179.508C110.644 179.417 110.765 179.358 110.895 179.341C111.025 179.323 111.157 179.347 111.273 179.409C111.388 179.471 111.482 179.567 111.539 179.685L112.936 182.576C112.993 182.694 113.087 182.791 113.203 182.853C113.319 182.915 113.451 182.938 113.581 182.919L116.784 182.488C116.915 182.468 117.047 182.491 117.164 182.553C117.28 182.614 117.374 182.711 117.431 182.829C117.489 182.948 117.507 183.081 117.483 183.211C117.46 183.34 117.395 183.459 117.3 183.549L114.982 185.775C114.887 185.866 114.823 185.985 114.8 186.114C114.777 186.244 114.795 186.378 114.853 186.496L116.254 189.386C116.314 189.506 116.334 189.643 116.311 189.775C116.288 189.907 116.222 190.028 116.124 190.12C116.026 190.212 115.901 190.27 115.767 190.285C115.634 190.3 115.499 190.271 115.383 190.203V190.203Z" fill="#E20E0E"/>
<path opacity="0.1" d="M282.52 237.016L279.328 235.306C279.198 235.235 279.049 235.208 278.902 235.228C278.755 235.248 278.618 235.314 278.511 235.417L275.896 237.925C275.79 238.027 275.654 238.093 275.508 238.113C275.362 238.134 275.213 238.107 275.083 238.038C274.953 237.968 274.848 237.859 274.783 237.726C274.719 237.594 274.698 237.444 274.724 237.299L275.362 233.733C275.392 233.584 275.373 233.429 275.309 233.292C275.244 233.154 275.137 233.041 275.003 232.97L271.807 231.263C271.677 231.193 271.573 231.083 271.509 230.95C271.445 230.816 271.424 230.666 271.451 230.521C271.477 230.375 271.548 230.242 271.655 230.139C271.761 230.037 271.898 229.97 272.044 229.95L275.633 229.453C275.779 229.434 275.916 229.368 276.023 229.266C276.13 229.164 276.202 229.03 276.228 228.885L276.866 225.319C276.893 225.174 276.964 225.041 277.071 224.939C277.178 224.836 277.314 224.771 277.46 224.75C277.606 224.73 277.755 224.756 277.886 224.825C278.016 224.895 278.122 225.003 278.187 225.136L279.764 228.396C279.829 228.528 279.935 228.636 280.066 228.705C280.197 228.773 280.346 228.799 280.493 228.778L284.081 228.285C284.228 228.264 284.378 228.29 284.509 228.36C284.64 228.429 284.746 228.539 284.81 228.672C284.875 228.806 284.895 228.956 284.869 229.102C284.842 229.248 284.769 229.382 284.662 229.484L282.05 231.992C281.943 232.095 281.871 232.229 281.845 232.375C281.818 232.521 281.838 232.671 281.901 232.805L283.482 236.066C283.556 236.2 283.584 236.354 283.563 236.506C283.541 236.658 283.47 236.798 283.361 236.906C283.252 237.013 283.111 237.082 282.959 237.102C282.807 237.122 282.653 237.092 282.52 237.016Z" fill="black"/>
<path d="M282.051 236.356L279.214 234.829C279.099 234.766 278.967 234.742 278.837 234.76C278.707 234.778 278.586 234.837 278.492 234.928L276.175 237.154C276.08 237.244 275.959 237.302 275.83 237.32C275.7 237.337 275.568 237.314 275.452 237.252C275.337 237.19 275.244 237.094 275.187 236.976C275.129 236.858 275.11 236.725 275.133 236.596L275.698 233.432C275.721 233.303 275.703 233.17 275.646 233.052C275.59 232.934 275.497 232.837 275.381 232.775L272.548 231.248C272.44 231.183 272.354 231.086 272.302 230.971C272.25 230.855 272.234 230.727 272.257 230.603C272.28 230.478 272.34 230.364 272.43 230.274C272.519 230.185 272.634 230.125 272.758 230.102L275.938 229.663C276.068 229.647 276.19 229.589 276.285 229.498C276.379 229.407 276.443 229.289 276.465 229.159L277.034 225.995C277.058 225.865 277.121 225.747 277.216 225.656C277.311 225.566 277.432 225.507 277.562 225.489C277.692 225.472 277.824 225.495 277.94 225.557C278.056 225.619 278.149 225.716 278.206 225.834L279.603 228.724C279.661 228.843 279.754 228.94 279.87 229.002C279.986 229.065 280.118 229.089 280.249 229.072L283.433 228.633C283.563 228.615 283.695 228.639 283.811 228.701C283.927 228.763 284.02 228.86 284.077 228.978C284.134 229.096 284.152 229.23 284.129 229.359C284.106 229.488 284.043 229.607 283.948 229.698L281.631 231.924C281.535 232.014 281.471 232.132 281.448 232.261C281.424 232.39 281.443 232.523 281.501 232.641L282.902 235.531C282.96 235.649 282.98 235.783 282.957 235.913C282.935 236.043 282.872 236.162 282.777 236.254C282.682 236.346 282.561 236.405 282.43 236.424C282.3 236.442 282.167 236.418 282.051 236.356V236.356Z" fill="#E20E0E"/>
<path d="M141.795 178.204C147.601 178.204 152.309 170.513 152.309 161.024C152.309 151.536 147.601 143.845 141.795 143.845C135.988 143.845 131.281 151.536 131.281 161.024C131.281 170.513 135.988 178.204 141.795 178.204Z" fill="#975656"/>
<path d="M199.744 172.05C205.551 172.05 210.258 164.358 210.258 154.87C210.258 145.382 205.551 137.69 199.744 137.69C193.937 137.69 189.23 145.382 189.23 154.87C189.23 164.358 193.937 172.05 199.744 172.05Z" fill="#975656"/>
<path d="M296.642 185.744L295.699 205.99L90.2549 227.113L0.255615 186.118V166.411L90.2549 205.696L296.642 185.744Z" fill="#E20E0E"/>
<path opacity="0.1" d="M90.2549 205.696V227.113L0.255615 186.118V166.411L90.2549 205.696Z" fill="black"/>
</g>
<defs>
<clipPath id="clip0">
<rect width="299.23" height="310" fill="white"/>
</clipPath>
</defs>
</svg>
